<svg xmlns="http://www.w3.org/2000/svg" viewBox="0 0 378 103.21"><title>DAF Trucks logo - Brandlogos.net</title><path d="M323,539.26H699.83v24.34H323Z" transform="translate(-323 -460.39)" style="fill:#ec1c2e"/><path d="M323.06,524.37V460.67h78.59c25.51,0,43.69,11.62,43.69,31.4,0,18.84-14.4,32.29-44.41,32.29Zm63.14-16.28a15.45,15.45,0,0,0,15.51-14.73c0-6.5-5.11-14.12-15.23-14.12h-21.4v28.85Z" transform="translate(-323 -460.39)" style="fill:#00529b"/><path d="M514.2,476.46l-28.85,48H445.22l38-64.08H545l38.18,64.08H498.74L508.8,507.8H533Z" transform="translate(-323 -460.39)" style="fill:#00529b"/><path d="M632.47,524.31H590.84V460.39H701V479H632.47v11.39h67.36v18.06H632.47Z" transform="translate(-323 -460.39)" style="fill:#00529b"/></svg>