<?xml version="1.0" encoding="utf-8"?>
<!-- Generator: Adobe Illustrator 28.4.1, SVG Export Plug-In . SVG Version: 6.00 Build 0)  -->
<svg version="1.1" id="图层_1" xmlns="http://www.w3.org/2000/svg" xmlns:xlink="http://www.w3.org/1999/xlink" x="0px" y="0px"
	 viewBox="0 0 748 134" style="enable-background:new 0 0 748 134;" xml:space="preserve">
<style type="text/css">
	.st0{fill:#306269;}
</style>
<path class="st0" d="M102,22.2v10.3h11v28.6H83.7V32.5h11V22.2H19v10.3h16.3V103H19v10.3h75.7V103h-11V72.5H113V103h-11v10.3h78.5
	V103h-19.1V32.5h19.1V22.2H102z M515.9,22.2v10.3h9.6l-19.3,35.6l-16.7-35.6h16.4V22.2h-66.4v10.3h9.2l6.6,14.1l-16.3,24.6
	l-18.2-38.8H434V22.2h-66.4v10.3h8.1l37.9,80.7h24.2l28.6-43.1l20.2,43.1h20.5l43.7-80.7h6.4V22.2H515.9z M242.5,67
	c0-22.7,13.1-41.1,29.2-41.1c16.1,0,29.2,18.4,29.2,41.1c0,22.7-13.1,41.1-29.2,41.1C255.6,108.1,242.5,89.7,242.5,67 M190.4,67
	c0,28.9,34.2,47.7,81.3,47.7c47.1,0,81.3-19.5,81.3-47.7c0-28.2-32.7-47.7-81.3-47.7C223.2,19.3,190.4,38.1,190.4,67 M618.6,67
	c0-22.7,13.1-41.1,29.2-41.1c16.1,0,29.2,18.4,29.2,41.1c0,22.7-13.1,41.1-29.2,41.1C631.6,108.1,618.6,89.7,618.6,67 M566.5,67
	c0,28.9,34.2,47.7,81.3,47.7c47.1,0,81.3-19.5,81.3-47.7c0-28.2-32.7-47.7-81.3-47.7C599.2,19.3,566.5,38.1,566.5,67"/>
</svg>
