<?xml version="1.0" encoding="utf-8"?>
<!-- Generator: Adobe Illustrator 28.4.1, SVG Export Plug-In . SVG Version: 6.00 Build 0)  -->
<svg version="1.1" id="Layer_1" xmlns="http://www.w3.org/2000/svg" xmlns:xlink="http://www.w3.org/1999/xlink" x="0px" y="0px"
	 viewBox="0 0 2500 1068.9" style="enable-background:new 0 0 2500 1068.9;" xml:space="preserve">
<style type="text/css">
	.st0{fill-rule:evenodd;clip-rule:evenodd;fill:#295BA7;}
</style>
<path class="st0" d="M110.3,788.3h88.2v97h157.6v-97h87.1v272.3h-87.1V946H197.4v113.6h-87.1V788.3L110.3,788.3z M453.2,788.3h86
	l90.4,104.7l89.3-104.7h84.9L672.6,954.8v105.8h-87.1V947.1L453.2,788.3L453.2,788.3z M814.8,788.3h87.1v210.6h140
	c22,0,36.4-22,36.4-45.2V788.3h87.1v217.2c0,34.2-38.6,54-60.6,54H814.8V788.3L814.8,788.3z M1184.1,788.3h290
	c34.2,0,61.7,20.9,61.7,63.4v208.3l-87.1,0.5V895.3c0-23.1-7.7-36.9-37.5-36.9h-131.2v202.9h-95.9V788.3z M1562.3,788.3h253.5
	c50.7,0,89.9,40.8,89.9,72.2v125.1c-0.6,22-31.4,74.9-70,74.9h-273.4L1562.3,788.3L1562.3,788.3L1562.3,788.3z M1651,1000h133.8
	c19.3,0,34.2-14.3,34.2-32v-79.4c0-19.3-15.9-30.8-36.2-30.8H1651V1000L1651,1000z M2013.2,787.2H2285v273.4h-97v-70.5h-167v70.5
	h-98.1V883.1C1920.6,823.6,1973.5,787.2,2013.2,787.2L2013.2,787.2z M2019.8,884.3v44h167.6v-69.5h-141.1
	C2029.7,858.9,2019.8,868.8,2019.8,884.3z M2302.6,787.8h87.1v281.1h-87.1V787.8z M1255.3,0C893.9,0,600.9,144.7,600.9,323.1
	c0,178.4,293,323.1,654.4,323.1c361.4,0,654.4-144.7,654.4-323.1C1909.7,144.7,1616.7,0,1255.3,0L1255.3,0z M1193.2,71.9
	c74.7-26.4,296.6,0,382.8,41.4c27.6,26.5-123,111.5-302.3,148.3C1017.3,313.3,1139.2,115.6,1193.2,71.9z M753,454.7
	c-56.4-40.2-166.7-155.2,16.1-274.7c96.6-56.3,150.6-69,217.2-82.8c32.2-6.9,55.2,1.1,26.4,25.3c-60.9,63.2-187.4,272.4-198.9,318.4
	C804.7,472,786.3,480,753,454.7L753,454.7z M1279.4,588.1c-108,11.5-348.3-24.1-352.9-55.1C931.1,458.2,1308.2,334,1376,403
	C1404.7,457,1349.6,584.6,1279.4,588.1z M1828.9,370.8c-27.6,63.2-120.7,134.5-316.1,182.8c-29.9,6.8-40.3-11.5-20.7-28.8
	c32.2-19.5,187.4-279.3,206.9-331.1c11.5-26.5,33.3-16.1,47.1-5.7C1808.2,228.2,1855.4,293.8,1828.9,370.8L1828.9,370.8z"/>
</svg>
