<?xml version="1.0" encoding="utf-8"?>
<!-- Generator: Adobe Illustrator 28.0.0, SVG Export Plug-In . SVG Version: 6.00 Build 0)  -->
<svg version="1.1" id="Слой_1" xmlns="http://www.w3.org/2000/svg" xmlns:xlink="http://www.w3.org/1999/xlink" x="0px" y="0px"
	 viewBox="0 0 1000 161.8392792" enable-background="new 0 0 1000 161.8392792" xml:space="preserve">
<path d="M843.125,155.9839325c-30.416626,0-55.166687-20.4434509-55.166687-45.5726166V45.5726204
	C787.958313,20.4436302,812.708374,0,843.125,0h101.7023926C975.25,0,1000,20.4436302,1000,45.5726204v64.8386993
	c0,25.1291656-24.75,45.5726166-55.1726074,45.5726166H843.125z M833.6726685,37.4892845
	c-0.625061,0-1.1369629,0.5113106-1.1369629,1.1386909v78.633934c0,0.6285629,0.5119019,1.1392746,1.1369629,1.1392746H953.583313
	c0.625061,0,1.1369629-0.5107117,1.1369629-1.1392746v-78.633934c0-0.6273804-0.5119019-1.1386909-1.1369629-1.1386909H833.6726685z
	"/>
<path d="M520.7511597,155.9851227H394.0303345c-30.4219971,0-55.1714172-20.444046-55.1714172-45.5732193V45.5511932
	c0-25.1294079,24.7494202-45.57304,55.1714172-45.5478592h126.0916748l0.9172974-0.0019045
	c1.9297485,0,3.4946289,1.5645851,3.4946289,3.4945834l0.0006104,0.1367872v30.3706551
	c0,1.929882-1.5654907,3.4947624-3.4952393,3.4947624l-0.2929077-0.0017853l-135.988678,0.0017853
	c-0.7309265,0-1.3255615,0.5952377-1.3255615,1.3261909v78.2511902c0,0.730957,0.594635,1.3261948,1.3255615,1.3261948
	L520.625,118.402977l0.4143066,0.0011826c1.9297485,0,3.4946289,1.5642853,3.4946289,3.4946518l0.0012207,0.0648804
	l-0.0161133,30.4988174l0.0042114,0.0285645c0,1.9303589-1.5541992,3.4946442-3.4839478,3.4946442L520.7511597,155.9851227z"/>
<path d="M747.5773926,155.9851227H620.8571777c-30.4202881,0-55.1690674-20.444046-55.1690674-45.5732193V45.5511932
	c0-25.1294079,24.7487793-45.57304,55.1690674-45.5478592h126.0952148l0.916626-0.0019045
	c1.9286499,0,3.4940796,1.5645851,3.4940796,3.4945834v0.1367872v30.3706551c0,1.929882-1.5654297,3.4947624-3.4940796,3.4947624
	l-0.291626-0.0017853l-135.9880981,0.0017853c-0.7321777,0-1.3273926,0.5952377-1.3273926,1.3261909v78.2511902
	c0,0.730957,0.5952148,1.3261948,1.3273926,1.3261948l135.8630981,0.0011902l0.416626,0.0011826
	c1.9286499,0,3.4940796,1.5642853,3.4940796,3.4946518v0.0648804l-0.0178833,30.4988174l0.0059814,0.0285645
	c0,1.9303589-1.5535278,3.4946442-3.4821777,3.4946442L747.5773926,155.9851227z"/>
<path fill="#1554FF" d="M521.4059448,95.4470291H408.0470276c-1.1321411,0-2.0583191-0.9262009-2.0583191-2.0589371V62.9119034
	c0-1.13274,0.926178-2.0589256,2.0583191-2.0589256h113.3589172c1.1327515,0,2.05896,0.9261856,2.05896,2.0589256V93.388092
	C523.4649048,94.5208282,522.5386963,95.4470291,521.4059448,95.4470291z"/>
<path d="M195.2011871,161.8392792c-17.4684448,0-33.3529663-7.9440308-41.4547577-20.7327271l-0.4690399-0.7845306
	L74.3238068,4.6302986c-0.5249939-0.9361334-0.5142822-2.0223825,0.0160751-2.9272633
	c0.6142883-1.0487494,1.8232117-1.6999387,3.1541672-1.6999387h41.6607132c1.3589249,0,2.5779724,0.6699392,3.1821442,1.7485704
	l71.3124924,122.0602417c0.1494141,0.1761932,0.5958557,0.5648804,1.6178741,0.5863037
	c1.168457-0.0083313,1.4958038-0.5452271,1.6535492-0.8029709L274.3303528,1.6335107
	c0.6077576-0.9972595,1.8053589-1.6304141,3.1125183-1.6304141h42.3118896c1.3565674,0,2.5762024,0.6699392,3.1821289,1.7485704
	c0.5244141,0.9319639,0.5029907,2.0363104-0.0559387,2.9543438l-85.8708344,135.8612518
	c-7.9113007,12.9964294-23.7880859,21.1541748-41.4226227,21.2708435L195.2011871,161.8392792z"/>
<path d="M41.4679756,155.9868927H3.4945714C1.5725714,155.9868927,0,154.4148865,0,152.4928589V3.4963686
	c0-1.9220227,1.5725714-3.4945238,3.4945714-3.4945238h37.9734039c1.9220238,0,3.4945831,1.5725011,3.4945831,3.4945238v148.9964905
	C44.9625587,154.4148865,43.3899994,155.9868927,41.4679756,155.9868927z"/>
</svg>
