<?xml version="1.0" encoding="utf-8"?>
<!-- Generator: Adobe Illustrator 28.0.0, SVG Export Plug-In . SVG Version: 6.00 Build 0)  -->
<svg version="1.1" id="Слой_1" xmlns="http://www.w3.org/2000/svg" xmlns:xlink="http://www.w3.org/1999/xlink" x="0px" y="0px"
	 viewBox="0 0 1000 550.8" style="enable-background:new 0 0 1000 550.8;" xml:space="preserve">
<style type="text/css">
	.st0{fill-rule:evenodd;clip-rule:evenodd;fill:#000001;}
</style>
<path class="st0" d="M167.4,399.2H93.6v151.6h78.7v-60l47,46.8l47-46.8v60h78.7V399.2h-73.8l-51.9,51.6L167.4,399.2z M523,493.6
	h-45.6l22.8-35.1L523,493.6z M542,399.2h-83.6l-99.1,151.6h81.2l11-17h97.5l11,17h81.2L542,399.2z M500,0C223.9,0,0,222.9,0,497.8
	c0,17.9,0.9,35.6,2.8,53h52.4c-2.1-17.4-3.1-35.1-3.1-53c0-246.3,200.6-446,448-446s448,199.7,448,446c0,17.9-1.1,35.6-3.1,53h52.4
	c1.9-17.4,2.8-35.1,2.8-53C1000,222.9,776.1,0,500,0z M732.9,399.2h-78v151.6h78.6v-68.4l92.8,68.4H905V399.2h-78.7v69L732.9,399.2z
	"/>
</svg>
