<?xml version="1.0" encoding="utf-8"?>
<!-- Generator: Adobe Illustrator 28.4.1, SVG Export Plug-In . SVG Version: 6.00 Build 0)  -->
<svg version="1.1" id="Layer_1" xmlns="http://www.w3.org/2000/svg" xmlns:xlink="http://www.w3.org/1999/xlink" x="0px" y="0px"
	 viewBox="0 0 2497.6 1366.6" style="enable-background:new 0 0 2497.6 1366.6;" xml:space="preserve">
<style type="text/css">
	.st0{fill-rule:evenodd;clip-rule:evenodd;fill:#33348E;}
</style>
<g>
	<path class="st0" d="M2282,652h-739.8L1289.6,29.5l-46.5,116.3L1041.3,652H249.8L34.3,1154.6l1208.9,166.3l35.3,4.9l1182.3-171.1
		L2282,652L2282,652z M1275,1181.1l-31.8-1.1l-1138.7-40.2l182-417h750.6l206.1-526.7l46.5-118.1l251.8,644.8h699.6l141.1,417
		L1275,1181.1L1275,1181.1z"/>
	<path class="st0" d="M2300.1,972.3l-73.7-33.9l40.5-55.5l-37-130.3h-587.5l59.7,126.1h331.1l-45.4,59.7l57,52.7h-454.1
		l-301.1-849.8l-46.5,120.9L993.1,916.7H880.6l-32.8-164.2H647l-96.1,134.1l-74.4-134.1h-174l-157.9,361.5H313l73.7-122.9
		l55.5,122.9h212.4l66.7-130.6l66.7,130.6h316.4l63.2-78.2l75.4,48.5l46.5,29.7l110.7-78.2l60.4,78.2h887.9L2300.1,972.3
		L2300.1,972.3z M1289.6,946.1l-46.5-32.5l-49.6-34.9l49.6-117.4l46.5-109.3l93.2,226.7L1289.6,946.1L1289.6,946.1z"/>
</g>
</svg>
