<?xml version="1.0" encoding="utf-8"?>
<!-- Generator: Adobe Illustrator 28.4.1, SVG Export Plug-In . SVG Version: 6.00 Build 0)  -->
<svg version="1.1" id="Слой_1" xmlns="http://www.w3.org/2000/svg" xmlns:xlink="http://www.w3.org/1999/xlink" x="0px" y="0px"
	 viewBox="0 0 1000 624.9" style="enable-background:new 0 0 1000 624.9;" xml:space="preserve">
<style type="text/css">
	.st0{fill-rule:evenodd;clip-rule:evenodd;fill:#0C4D89;}
	.st1{fill-rule:evenodd;clip-rule:evenodd;fill:#231F20;}
</style>
<g>
	<g>
		<path class="st0" d="M491.9,66.6c0,0-22.2-1.5-29.6,18c-7.5,19.5-52.2,128-52.2,128s-11.2,24.7,15.4,24.7c26.6,0,30,0.5,30,0.5
			s17.1-3.1,5.8,25.4c-11.4,28.5-30.5,76.4-30.5,76.4s-5.9,15.3-24.4,15.3c-15,0-42.7-0.4-52.4-0.6c-31.1-34.8-50.1-80.7-50.1-131.1
			c0-108.6,88-196.6,196.6-196.6c45.4,0,87.2,15.4,120.4,41.2L491.9,66.6L491.9,66.6z M500.5,0C377.2,0,277.2,100,277.2,223.3
			c0,123.3,100,223.3,223.3,223.3c47.8,0,92-15,128.4-40.6c-3.6-4.2-13.7-15.7-17.5-20.3c-31.6,21.6-69.7,34.2-110.8,34.2
			c-43.6,0-83.8-14.2-116.4-38.1l106.5,0.5c0,0,39,3.1,51.5-27.3c12.5-30.3,47.3-118.1,47.3-118.1s9.2-25.8-11-25.8h-32.5
			c0,0-17.5,1-8-21.5c9.5-22.5,30.8-76.6,30.8-76.6s6.6-20,35.4-20c21.7,0,37.6,0.4,44.1,0.6c30.5,34.6,48.9,80.1,48.9,129.8
			c0,41.6-12.9,80.1-34.9,111.9c1.1,0.6,1.7,1,1.7,1l19.1,15.7c25.6-36.3,40.7-80.7,40.7-128.5C723.8,100,623.8,0,500.5,0z"/>
		<path class="st0" d="M661.4,347.5c0,0-11.2-7.5-23.9,1c-12.7,8.5-17.5,19.3-17.8,25.2c-0.2,5.9-0.4,6.5,2,9.6
			c2.5,3.1,14.7,17,14.7,17s14.4-10.5,22.8-18.8c8.3-8.3,17.8-18.6,16.9-21.9L661.4,347.5z"/>
	</g>
	<g>
		<polygon class="st1" points="634.4,603.4 665.6,570.6 665.8,621.7 706.3,621.3 706.4,524.4 667.4,524.4 635.6,564.3 600.9,524.8 
			563.2,524.7 563.1,621.4 603,621.5 603.2,572 		"/>
		<polygon class="st1" points="911.6,574.7 963.5,621.6 1000.5,621.6 1000.3,524 960,524 960,575 906.5,524.1 872,524.1 
			872.1,621.7 911.8,621.6 		"/>
		<polygon class="st1" points="181.8,586.7 219.1,586.7 219.1,621.6 263.8,621.6 263.5,524.6 218.9,524.7 219,559.6 181,559.6 
			180.9,524.7 136.2,524.8 136.2,621.5 181.8,621.6 		"/>
		<path class="st1" d="M544.7,595.4c-9.9-0.2-22.3-0.1-34.6-0.1c-23.9,0-47.2-3.2-45.6-24.5c2.3-25.8,27.7-20,80.3-20.8l-0.8-27.6
			c-18.2-0.8-68.6-2.1-83.8,2.5c-53.2,16.2-49.9,80.3,0.5,95c17.2,5,63.4,2.4,84.2,2.5L544.7,595.4z"/>
		<path class="st1" d="M327.6,586.4l18.3-32.5l17.2,32.6L327.6,586.4L327.6,586.4z M320.3,604l51.2,0l9.7,17.6l39.2-0.4l-54.9-97.1
			l-40.6,0c-11.2,21.2-49.4,83.3-55,97.4l41,0.1L320.3,604z"/>
		<path class="st1" d="M771.8,586.4l18.3-32.5l17.2,32.6L771.8,586.4L771.8,586.4z M764.6,604l51.2,0l9.7,17.6l39.2-0.4L809.7,524
			l-40.6,0c-11.2,21.2-49.4,83.3-55,97.4l41,0.1L764.6,604z"/>
		<path class="st1" d="M65.4,522.1c20.4,0,52.8,4.8,58.6,29.7H81c-0.6-2.6-2.6-4.5-5.8-5.7c-2.8-1.2-6.3-1.9-10.5-1.9
			c-11.2,0-16.8,2.1-16.8,6.3c0,2.4,1.9,4,5.8,5c21.6,5.5,74.3,12.6,73.6,34.5c-0.4,12.5-5.9,21.5-17.6,26.8c-11.7,5.3-27.1,8-46,8
			c-10.9,0-21.1-1.2-30.8-3.6c-9.6-2.4-17.5-6.2-23.5-11.3c-5.3-4.5-8.3-10-8.9-16.5h43.2c0.7,3.1,2.8,5.4,6.4,6.7
			c4.3,1.7,8.8,2.5,13.6,2.5c12.9,0,19.3-2.4,19.3-7.3c0-2.5-2-4.3-6.1-5.4c-4-1.1-10.6-2.3-19.8-3.5C38.5,584,4,576.7,3.6,555.4
			c-0.2-12,5.7-20.6,17.1-25.7C32.1,524.6,47,522.1,65.4,522.1z"/>
	</g>
</g>
</svg>
