<?xml version="1.0" encoding="utf-8"?>
<!-- Generator: Adobe Illustrator 28.0.0, SVG Export Plug-In . SVG Version: 6.00 Build 0)  -->
<svg version="1.1" id="Слой_1" xmlns="http://www.w3.org/2000/svg" xmlns:xlink="http://www.w3.org/1999/xlink" x="0px" y="0px"
	 viewBox="0 0 1000 146.3414307" enable-background="new 0 0 1000 146.3414307" xml:space="preserve">
<g>
	<g>
		<path fill-rule="evenodd" clip-rule="evenodd" fill="#FF6634" d="M716.4632568,146.3414307h89.6341553
			c0.6098022,0,0.6098022-0.6097565,0.6098022-0.6097565L718.9022827,0c0,0,0,0-0.6098022,0H599.3900757h-0.6097412
			l-87.8048096,145.7316742c0,0.6097565,0,0.6097565,0.6097412,0.6097565h178.0487671
			c3.6585693,0,6.0975952-4.2682953,4.2683105-7.3170776l-21.3414917-35.9755936c0,0,0,0-0.6097412,0H628.048645
			c-0.6097412,0-0.6097412-0.6097565-0.6097412-0.6097565l31.0975342-52.4390182c0-0.6097603,0.6097412-0.6097603,0.6097412,0
			L716.4632568,146.3414307L716.4632568,146.3414307z"/>
		<path fill-rule="evenodd" clip-rule="evenodd" fill="#FF6634" d="M460.9755249,0h-189.024353c0,0-0.6097717,0-0.6097717,0.609756
			v43.292675c0,0,0,0.6097527,0.6097717,0.6097527h148.7804565c4.8780823,0,8.5365906,4.2682915,7.9268494,8.5365868
			c-0.6097412,4.2682877-4.26828,7.31707-8.5365906,7.31707H271.9511719c0,0-0.6097717,0-0.6097717,0.6097565v84.756073
			c0,0,0,0.6097565,0.6097717,0.6097565h85.9755859c0,0,0.6097412,0,0.6097412-0.6097565v-42.6829147
			c0,0,0-0.6097565,0.6097412-0.6097565h26.2195129h0.6097717l23.1707458,42.6829147c0,0,0,0,0.6097412,0h83.5365295
			c0.6097717,0,0.6097717-0.6097565,0.6097717-0.6097565l-26.8292847-42.6829224v-0.6097565
			c25-3.0487747,45.1219788-23.7804794,45.73172-49.3902359C512.8047485,23.7804832,489.6340637,0,460.9755249,0z"/>
		<path fill-rule="evenodd" clip-rule="evenodd" fill="#FF6634" d="M150.609726,0.609756v102.439003H98.7804718
			c-6.7073135,0-12.1951141-5.4878006-12.1951141-12.1951218V0.609756c0,0,0-0.609756-0.6097641-0.609756H0.6097583
			C0,0,0,0,0,0.609756v83.5365677c0,34.1463318,28.0487785,62.1951065,62.1951141,62.1951065h174.9999695
			c0,0,0.6097565,0,0.6097565-0.6097565V0.609756c0,0,0-0.609756-0.6097565-0.609756L150.609726,0.609756
			C150.609726,0,150.609726,0,150.609726,0.609756z"/>
		<path fill-rule="evenodd" clip-rule="evenodd" fill="#FF6634" d="M999.9998169,141.4633942
			c0,2.4390259-1.8292847,4.8780365-4.8780518,4.8780365l0,0l0,0H828.048645c0,0-0.6098022,0-0.6098022-0.6097565V0.609756
			c0,0,0-0.609756,0.6098022-0.609756h85.975647c0,0,0.6098022,0,0.6098022,0.609756v101.8292542
			c0,0,0,0.6097565,0.6097412,0.6097565h62.8049316l0,0h0.6098022l19.512146,34.146347l1.2194824,1.8292542
			c0,0.6097565,0.6098022,0.6097565,0.6098022,1.2195129l0,0
			C999.9998169,140.8536377,999.9998169,141.4633942,999.9998169,141.4633942z"/>
	</g>
</g>
</svg>
