<?xml version="1.0" encoding="utf-8"?>
<!-- Generator: Adobe Illustrator 28.0.0, SVG Export Plug-In . SVG Version: 6.00 Build 0)  -->
<svg version="1.1" id="Слой_1" xmlns="http://www.w3.org/2000/svg" xmlns:xlink="http://www.w3.org/1999/xlink" x="0px" y="0px"
	 viewBox="0 0 1000 174.0875549" enable-background="new 0 0 1000 174.0875549" xml:space="preserve">
<path fill-rule="evenodd" clip-rule="evenodd" fill="#ED1C24" d="M50.2932091,1.1625892
	c-3.608448-0.4510416-37.4379501-0.4510416-42.6251564,0C2.0298021,1.6136309,0,4.0943599,0,9.9581308v156.7433929
	c0,7.2168884,4.9616876,6.9913788,9.9233179,7.2168884c3.3829842,0.2255249,35.6337814,0.2255249,39.2422295,0
	c7.4425316-0.4510345,7.8935738-4.5104065,7.8935738-11.0509644c0-11.2765045,0-142.3093872,0-153.5858765
	C57.0591202,4.0943599,55.7059364,1.8391517,50.2932091,1.1625892"/>
<path fill-rule="evenodd" clip-rule="evenodd" fill="#ED1C24" d="M291.8358154,154.9739838
	c11.0509644-14.8850708,12.6296692-45.557045-15.7870789-61.1186676
	c-16.0126343-8.7955399-100.5863647-36.0847092-117.9521637-43.0760803
	c-4.9616852-2.0299187-6.3148651-4.2851257-5.6382446-6.9916077c0.6765594-3.6083298,5.6382446-3.3828125,7.667984-3.3828125
	c1.8042297-0.2255173,19.3955994,0,124.2670288,0.4510422c6.0892944,0,8.7956543-1.5788727,9.4722595-7.442646
	c0.2255249-3.1572895,0-20.7486019,0-22.7785187c-0.2254944-6.7658539-1.3531799-9.4721041-9.0212097-9.4721041
	c-8.5701599,0-111.8628693-0.4510416-144.3391876,0.6765625c-36.3103409,1.353125-47.1357422,18.2678757-49.6165848,35.8591843
	c-2.4808426,16.9147491,3.8340225,33.152935,20.2976761,43.076313
	c15.5615692,9.4723358,69.2377014,25.9358139,118.8543396,43.9783936c7.8935242,2.9317703,8.5701447,5.6382523,7.4424744,8.3445053
	c-0.9021301,1.5786438-4.5105896,2.0296783-9.2467499,2.0296783c-12.4041595,0-117.9521484-1.5786438-124.0414963-1.3531189
	c-7.8935165,0.2255249-9.2466965,2.480957-9.4722214,10.3744202c0,2.0296783,0,16.4636993,0,18.4933929
	c0.2255249,7.4426422,1.3531876,10.3744202,9.0211792,10.3744202c44.654953,0.4510345,121.5606537,0.9020691,138.0243683,0.4510345
	c25.9359131-0.9020844,40.1443176-5.412735,50.067627-18.7189178"/>
<path fill-rule="evenodd" clip-rule="evenodd" fill="#ED1C24" d="M764.9976807,23.2645473
	c-6.5402832-15.3361034-20.0721436-21.6509171-47.3613281-22.5529995c-21.199707-0.6765624-141.4072876,0-144.1136475,0
	c-8.5701294,0-9.0211792,3.3828123-9.2467041,10.8254576c0,2.0296879,0,18.9444389,0.2255249,21.6506844
	c0.6765747,6.0892944,4.7362061,6.7660866,9.0211792,6.7660866c2.7063599,0,119.0799561-0.6767921,126.9733887-0.6767921
	c3.8341064,0,5.1871948,1.3533516,5.6382446,3.6085625c0,2.029686-1.1275635,3.3830414-3.8339233,4.7361641
	c-35.6337891,16.463707-95.399231,42.3995209-113.2160645,50.9697723
	c-26.161438,12.6296234-32.0253296,27.5146866-30.6721191,42.1740036
	c1.5787964,16.4636993,11.5020752,30.8977203,48.2634277,32.2508545
	c32.2507324,0.9020691,124.7180786-0.4510498,147.2710571-0.9020844c8.3446045-0.2255249,8.5701294-3.1575317,9.2468262-9.0213013
	c0.2255249-2.4807281,0.2255249-15.3358765,0.2255249-17.3657837c-0.2255249-10.3741913-1.1277466-12.6296234-10.1489258-12.6296234
	c-6.991333,0-97.654541,1.8041687-123.3649292,1.5786438c-4.0594482,0-5.1871948-2.2552185-3.8339844-4.7359467
	c0.9020996-1.3533478,3.3829346-2.7064743,8.5701904-5.1872025c21.6508789-9.6978531,81.1907959-34.2805405,110.9606934-52.3231201
	C763.4190674,61.8299828,773.5678101,43.3365898,764.9976807,23.2645473"/>
<path fill-rule="evenodd" clip-rule="evenodd" fill="#ED1C24" d="M520.2976074,0.9370684
	c-5.4125977-0.4510416-37.8889771-0.4510416-41.2718811-0.2255208c-4.0596008,0.4510416-7.6680603,1.1276041-7.6680603,9.0210619
	c0,4.736167,0,77.8078918,0,92.0163879c0,18.0423584-3.1574097,30.2209396-25.2593689,31.7995834
	c-13.08078,0.6765594-22.553009,0.6765594-34.9570923-0.4510345c-20.9743652-1.8041687-25.033844-9.0210648-25.033844-34.2805481
	c0-15.7871399,0.2255249-81.4162292,0.2255249-87.7312698c0-6.5403328-0.6765747-9.9231453-8.5701294-10.1486664
	c-5.4127502-0.2255208-36.0847778-0.2255208-39.4677734,0c-4.0595398,0.2255208-8.1190186,1.127604-8.1190186,9.0210629
	c0,4.736166-0.4511108,58.8634567,0,104.1949768c0.4510193,58.6377106,40.3697815,57.0590668,59.0888062,58.6377106
	c11.5020142,1.127594,61.7952271,1.3531189,84.3482056-0.4510498c40.8208618-2.9317627,52.0974121-24.1316376,53.2250977-53.901535
	c0.4510498-19.6212311,1.1276245-90.211998,0.6765747-107.5780182c0-6.5403337-1.1276245-9.4721041-7.4425659-9.9231462"/>
<path fill-rule="evenodd" clip-rule="evenodd" fill="#ED1C24" d="M999.7744141,9.7326097
	c0-5.8637705-1.3531494-9.0210619-7.4424438-9.4721041c-5.8637695-0.4512711-36.9868774-0.2255208-39.6932373,0
	c-6.7659912,0.6765624-8.3446655,2.4807291-8.3446655,8.5700207c-0.2255249,4.9616871-0.2255249,82.9951019-0.4509888,96.9778519
	c-0.4511719,20.2977905-7.217041,23.0040436-16.9147949,25.4850006c-9.9233398,2.4807281-41.7230835,1.8041687-45.7826538,1.3531189
	c-12.1785889-1.5786438-20.0721436-6.540329-20.2976685-26.6126022
	c-0.4510498-19.6209946-0.2255249-90.6630402-0.2255249-96.9778519s-2.7063599-8.1189795-7.8935547-8.5700207
	c-4.736084-0.2255208-33.8295288-0.2255208-40.5953979,0c-8.1190796,0.4510416-8.5701294,3.8338537-8.5701294,9.9231453
	c-0.2255249,11.9530621-0.4510498,96.9780807,0.9020996,111.186348
	c2.9318848,33.6039886,19.3955688,47.1356964,47.8123779,49.6166534
	c26.6126099,2.2552032,89.5354004,2.4807281,108.7055054-1.8041687
	c30.6720581-7.2171326,36.9868774-31.3487701,38.5655518-61.7952271C1000.2255249,91.6001053,1000,16.9497356,999.7744141,9.7326097
	"/>
</svg>
