<?xml version="1.0" encoding="utf-8"?>
<!-- Generator: Adobe Illustrator 28.4.1, SVG Export Plug-In . SVG Version: 6.00 Build 0)  -->
<svg version="1.1" id="图层_1" xmlns="http://www.w3.org/2000/svg" xmlns:xlink="http://www.w3.org/1999/xlink" x="0px" y="0px"
	 viewBox="0 0 1488.1 1178" style="enable-background:new 0 0 1488.1 1178;" xml:space="preserve">
<style type="text/css">
	.st0{fill:#024375;}
</style>
<g>
	<g>
		<g>
			<path class="st0" d="M878.5,13.4c-13.3,3.7-26.4,11.9-40.4,16.2c-38.4,12-95,22.3-145.4,13.7c-26.3-4.5-50.4-8.8-72.9-16.7
				C607.9,22,596,17.3,584,12.6C473.5,206.4,363,400.2,252.5,594c-0.3,0.5-0.6,1.1-0.8,1.7c3.9,3.1,7.8,6.1,11.7,9.2
				c15.3,11.7,30.4,25,42.5,40c9.6,11.9,20.6,22.8,29.6,35.4c24.4,34.1,43.1,71.8,57.1,116.6c4.9,15.8,10.7,34.1,11.2,53.3
				c220-0.1,440.1-0.3,660.2-0.4c1.5-7.8,3.1-15.5,4.6-23.3c4.8-19,9.4-38.2,16.2-55.8c12.9-33.3,26.7-65.3,45.8-92.5
				c7.8-11.1,17.1-20.9,25.4-31.2c12.7-15.8,39.6-39.5,60.4-46.2C1103.7,405,991.1,209.2,878.5,13.4z M1059.7,751.5
				c-6.6,21-17.5,49.4-17.9,74.6c-204.8,0.3-409.6,0.5-614.3,0.8c-0.6-18.9-6.4-36.6-11.3-52.1c-12.8-40.9-30.2-75.4-52.5-106.6
				c-7.7-10.8-17.2-20.2-25.4-30.4c-10.2-12.7-22.6-24-35.4-34.1c-4.3-3.5-8.6-6.9-12.9-10.4C392,411.8,494.1,230.3,596.1,48.8
				c13.2,4.9,26.4,9.7,39.6,14.6c23.4,7.9,48.7,9.8,76.6,14.2c10.7,0,21.4,0,32.1,0c9-0.6,18.1-1.1,27.1-1.7
				c21.8-3.8,42.6-6.8,61.6-13.3c11.1-4.3,22.2-8.6,33.3-12.9c103.1,180.9,206.3,361.8,309.5,542.7
				C1116.8,621.3,1080.8,684.6,1059.7,751.5z"/>
			<path class="st0" d="M858.5,68.8c-6.2-0.6-24.5,9.3-32.1,11.7c-23.3,7.3-47.6,13.4-78.3,12.9c0,47.2,0,94.4,0,141.6
				c0,26.2-2.7,53.8,1.7,77.5c3.7,20.4,5.7,40.2,11.2,58.7c14.8,49.2,34.2,89.2,61.6,125c8.4,10.9,17.6,23.1,28.3,31.7
				c11.9,9.6,23.3,20.1,36.2,28.7c29.7,16.9,59.4,33.9,89.1,50.8c34.7,19.9,69.4,39.7,104.1,59.6c5-7.8,10-15.5,15-23.3
				c15.8-22.1,35.9-46.1,57.5-62.5C1054.8,410.4,956.7,239.6,858.5,68.8z"/>
			<path class="st0" d="M567.8,563.6c14.3-9,26.6-20.4,39.6-30.8c12.8-10.3,23.5-25,33.3-38.3c30.5-41.6,51.4-89.9,66.2-147.9
				c4.5-17.8,5.9-36.5,9.2-55.8c0-65.4,0-130.8,0-196.2c-28.7,3.7-65.8-7.3-86.6-15.4c-7.8-3.1-15.5-6.1-23.3-9.2
				c-98.3,170.8-196.6,341.5-294.9,512.3c8.3,8.1,16.7,16.1,25,24.2c11.2,13.9,23.2,26.4,33.7,41.2c4.5,6.3,10.7,13,13.3,20.8
				c35.5-20.3,71.1-40.5,106.6-60.8C515.9,593.1,541.8,578.3,567.8,563.6z"/>
			<path class="st0" d="M903.1,607.4c-50.7-30.4-91.1-51.4-174.9-50c-5.7,0.4-11.4,0.8-17.1,1.3c-13.3,2.1-26.7,4.2-40,6.3
				c-32.8,8.2-62,18.1-90,30.4c-43,24.7-86.1,49.4-129.1,74.1c-16.7,9.7-33.3,19.4-50,29.2c-0.1,0.4-0.3,0.8-0.4,1.2
				c14.3,22,21.4,48.6,28.3,78.3c2,8.7,4.5,18.8,4.6,28.7c196.7,0.1,393.5,0.3,590.2,0.4c6.1-40.3,22.8-74.8,37.9-106.2
				c-31.7-18.6-63.3-37.2-95-55.8C946.1,632.6,924.6,620,903.1,607.4z"/>
		</g>
	</g>
	<g>
		<g>
			<path class="st0" d="M1295.8,1070.9c-2.9-6.6-11-15.6-9.2-25.4c2.1-10.9,8.9-17.6,14.2-25.4c7.8-11.9,15.5-23.9,23.3-35.8
				c2.7-4.1,14.7-17.2,11.2-23.3c-2.7-5.4-33.8-3.5-43.3-3.3c-8.3,3.2-31.2-3.2-37.1,1.7c-13.9,21.5-27.8,43-41.7,64.6
				c-3.2,4.8-8.4,19.9-15.8,18.3c-3-17.3-0.8-39.1-0.8-57.9c0-6.6,1.5-18.3-1.7-22.1c-2.3-3.8-10.4-2.5-16.2-2.5
				c-14.6,0-37.9-2.6-50.4,0.8c-5.4,8.2-2.5,39-2.5,52.5c0,44.7,0,89.4,0,134.1c-0.1,0-0.3,0-0.4,0c-20.3-45-40.5-90-60.8-135
				c-4.8-10.8-17.4-46.2-24.6-52.1c-24.2-0.1-48.3-0.3-72.5-0.4c-9,8.2-20,44.3-25.8,57.9c-20.1,47.8-40.3,95.5-60.4,143.3
				c-0.1,0.3-0.3,0.6-0.4,0.8c-8.5-19.3-16.9-38.6-25.4-57.9c0.8-9.6,13.2-13.8,17.9-20.4c9-12.6,10.7-27.4,13.7-46.6
				c5.5-35.4-18.4-71.2-42.5-77.1c-27.8,0-55.5,0-83.3,0c-18.1,0-36.1,0-54.2,0c-8.3,0-19-1-25.8,0.8c-5.2,8-2.5,36.9-2.5,50
				c0,37.1,0,74.1,0,111.2c0,13.8-3.1,36.7,2.1,46.7c9.4,3.3,61.7,1.6,67.9-2.9c2.3-10.6,0.8-25.8,0.8-37.9
				c0.1-4.2,0.3-8.3,0.4-12.5c2.3-2.1,27.8-0.9,33.3-0.8c10.6,15.4,10.6,39.8,21.2,55c18.5,0.1,36.9,0.3,55.4,0.4
				c9.1,0,16.6,1,20.8-3.7c0.5,0.1,1.7,3.4,3.7,4.2c6.2,0,12.5,0,18.7,0c16.5-0.3,33-0.6,49.6-0.8c4.5-2.1,10.5-18.9,12.9-24.2
				c25.8,0,51.7,0,77.5,0c4.8,5,6.8,19.5,13.7,21.7c11.4,0,22.8,0,34.1,0c24.5,0.6,44.4,0,69.1,0c7.6,0,33.3,2.1,37.9-0.8
				c1.9-3.1,3.9-6.1,5.8-9.2c4.3-6.9,24.2-40.4,29.2-42.9c0.8-0.1,1.7-0.3,2.5-0.4c10.7,10.4,16.1,40.4,25.4,54.2
				c14.5,3.3,35.1,0.8,51.2,0.8c5.8,0,15.3,1.3,19.6-0.8c8.3-4-3.4-24-6.2-30C1315.8,1115.3,1305.8,1093.1,1295.8,1070.9z
				 M749.8,1049.3c-3-5.7-3.2-20.6-0.4-26.7c19.2,0,38.3,0,57.5,0c3.5,1.3,8,7.1,8.8,11.3C819.8,1056.1,769.4,1049.6,749.8,1049.3z
				 M1015.9,1082.2c-2.2,3.1-17.9,1.4-22.9,1.2c-2-4.7,8-24.1,10.4-29.1c0.4,0,0.8,0,1.3,0C1006.9,1057.7,1017,1078.9,1015.9,1082.2
				z"/>
			<path class="st0" d="M283.3,1038.4c-13.5-2.9-52.4-3.9-55-15.4c5.5-10.1,27.8-10.6,42.5-7.5c13.6,2.8,15.2,14.3,21.2,16.2
				c16.8-0.6,33.6-1.1,50.4-1.7c4.9-2.4,4.9-10.4,3.7-17.5c-2.5-14.8-7.9-28.2-17.5-35.8c-37.4-29.9-132-23.4-156.2,12.9
				c-3.7,5.6-6.8,12.9-8.7,20c-8.2,29.9,6,57.4,23.3,68.7c12.1,7.9,31.4,10.8,47.1,14.2c14.8,3.2,49.1,1.2,55,12.1
				c-0.5,13.3-44.8,13.7-58.3,9.2c-7-2.4-10.8-10.7-14.6-16.7c-15.4-3.7-41.7-0.9-59.1-0.8c-2.9,54.6,27.8,65,73.3,72.9
				c10.5,1.8,26.2,2,37.1,0.4c9-0.7,18.1-1.4,27.1-2.1c27.3-5.2,45.4-15.8,54.1-39.2c1-6.4,1.9-12.8,2.9-19.2
				c1.4-8.9-0.4-19.2-2.1-25.8C341.5,1051,316.4,1045.5,283.3,1038.4z"/>
			<path class="st0" d="M437,961.8c-6.7-4.4-51.3-2.2-64.1-2.1c-0.8,0.6-1.7,1.1-2.5,1.7c-4.3,12.3-1.7,34.2-1.7,49.6
				c0,35,0,70,0,105c0,12.2-2.7,43.7,3.7,48.7c11.2,2.1,53.3,2.3,63.3-0.4c5.3-8.1,2.5-38.7,2.5-52.1c0-33.7,0-67.5,0-101.2
				C438.3,995.7,440.8,974.8,437,961.8z"/>
			<path class="st0" d="M658.2,960.1c-66.1-0.1-132.2-0.3-198.3-0.4c-1.1,0.8-2.2,1.7-3.3,2.5c-3.6,14.7-0.8,36.1-0.8,52.5
				c0,7.6-1,15,3.3,18.3c21.2,0.3,42.5,0.6,63.7,0.8c0.1,31.9,0.3,63.9,0.4,95.8c0,12-2.2,30.5,2.9,37.9c6.6,1.5,58,2.4,62.9,0
				c6.6-3.3,3.7-23.8,3.7-33.3c0.1-33.2,0.3-66.4,0.4-99.5c2.1-2.6,12.2-1.3,16.7-1.3c16-0.1,31.9-0.3,47.9-0.4
				c5-2.4,3.7-9.8,3.7-17.1C661.5,1004,664.1,964.6,658.2,960.1z"/>
		</g>
	</g>
</g>
</svg>
